<svg width="448" height="512" viewBox="0 0 448 512" fill="none" xmlns="http://www.w3.org/2000/svg">
<path d="M165.352 9.2094C173.948 1.99638 186.612 2.27381 194.838 10.0417C206.207 20.7687 216.374 32.6055 226.172 44.6272C238.65 59.8855 253.624 80.0449 268.044 103.996C272.85 97.7076 277.287 92.1591 281.169 87.4429C282.186 86.2407 283.202 84.9461 284.219 83.6514C291.521 74.5889 300.579 63.2145 312.688 63.2145C325.074 63.2145 333.762 74.219 341.157 83.6514C342.358 85.2235 343.56 86.7031 344.762 88.0902C354.282 99.5571 366.945 116.11 379.608 136.547C404.749 177.143 431 234.94 431 299.857C431 414.248 338.291 507 223.954 507C109.616 507 17 414.34 17 299.949C17 215.705 54.9893 142.743 91.4072 91.8817C109.801 66.2662 128.102 45.7369 141.875 31.6807C149.454 23.9129 157.126 16.2375 165.445 9.30188L165.352 9.2094ZM225.618 418.317C249.003 418.317 269.707 411.844 289.21 398.897C328.124 371.71 338.569 317.335 315.184 274.611C311.024 266.289 300.395 265.734 294.386 272.762L271.094 299.857C264.993 306.885 253.994 306.7 248.263 299.395C232.273 278.958 202.879 241.69 187.906 222.641C182.914 216.26 173.856 215.243 168.033 220.884C151.118 237.344 120.431 273.409 120.431 317.335C120.431 380.772 167.201 418.317 225.525 418.317H225.618Z" fill="white"/>
</svg>
