<svg width="872" height="519" viewBox="0 0 872 519" fill="none" xmlns="http://www.w3.org/2000/svg">
<path fill-rule="evenodd" clip-rule="evenodd" d="M55.8759 255.549C37.5267 278.947 121.603 280.709 116.065 296.303C110.514 311.897 15.3388 341.31 3.08762 357.546C-4.58356 397.985 133.516 368.609 69.1277 414.083C-20.8585 435.617 -31.2936 501.782 87.5587 474.005C206.407 446.227 330.519 417.217 275.72 449.374C220.92 481.531 222.934 493.224 236.69 502.323C276.601 524.349 563.398 509.17 599.923 486.213C636.447 463.244 540.391 463.533 544.846 422.377C549.302 381.221 630.947 388.621 681.958 380.83C845.086 368.106 823.564 316.428 782.395 316.541C741.226 316.667 541.322 299.714 658.712 273.069C795.963 277.235 1065.67 201.442 635.692 207.269C205.729 213.109 134.014 212.606 55.8797 255.549H55.8759Z" fill="black"/>
<path fill-rule="evenodd" clip-rule="evenodd" d="M58.3931 260.584C40.0439 283.981 124.12 285.743 118.582 301.337C113.031 316.931 17.8561 346.345 5.60482 362.581C-2.06635 403.02 136.034 373.644 71.6449 419.117C-18.3413 440.652 -28.7764 506.816 90.0759 479.039C208.924 451.262 333.036 422.251 278.237 454.408C223.437 486.566 225.451 498.258 239.208 507.358C279.118 529.383 565.915 514.204 602.44 491.248C638.965 468.278 542.908 468.568 547.364 427.411C551.819 386.255 633.464 393.656 684.476 385.865C847.603 373.14 826.081 321.462 784.912 321.575C743.743 321.701 543.839 304.748 661.229 278.103C798.48 282.269 1068.19 206.476 638.209 212.304C208.246 218.144 136.531 217.64 58.3969 260.584H58.3931Z" fill="black"/>
<path fill-rule="evenodd" clip-rule="evenodd" d="M61.128 256.921C43.0331 280.003 125.945 281.753 120.482 297.146C115.008 312.526 21.1523 341.562 9.07101 357.571C1.50556 397.494 137.688 368.496 74.1948 413.377C-14.5429 434.623 -24.8332 499.919 92.3653 472.506C209.579 445.094 331.965 416.461 277.921 448.203C223.889 479.932 225.865 491.474 239.433 500.46C278.789 522.196 561.61 507.206 597.631 484.551C633.652 461.884 538.917 462.173 543.31 421.558C547.702 380.943 628.227 388.243 678.521 380.566C839.396 368.005 818.176 316.994 777.573 317.12C736.971 317.233 539.836 300.506 655.602 274.214C790.952 278.329 1056.92 203.518 632.909 209.283C208.899 215.034 138.18 214.544 61.128 256.921Z" fill="white"/>
<path fill-rule="evenodd" clip-rule="evenodd" d="M77.2281 261.112C106.298 243.228 139.827 238.76 148.776 236.519C157.712 234.291 231.491 223.115 193.494 236.519C155.484 249.936 77.2281 261.112 77.2281 261.112Z" fill="#E4E4E4"/>
<path fill-rule="evenodd" clip-rule="evenodd" d="M188.447 303.162C179.108 280.092 160.43 63.2472 179.108 35.5706C197.786 7.88136 384.55 -15.1888 417.223 12.5004C449.909 40.177 547.954 77.0918 552.623 100.162C557.293 123.232 580.64 312.387 557.293 340.077C533.946 367.753 342.525 409.274 319.178 400.049C295.831 390.823 188.447 303.162 188.447 303.162Z" fill="black"/>
<path fill-rule="evenodd" clip-rule="evenodd" d="M194.564 300.884C185.552 278.33 167.504 66.3059 185.552 39.246C203.588 12.186 384.034 -10.3681 415.599 16.6919C447.178 43.7518 541.913 79.8485 546.418 102.403C550.937 124.957 573.491 309.896 550.937 336.968C528.383 364.028 343.431 404.631 320.877 395.606C298.323 386.582 194.564 300.884 194.564 300.884Z" fill="white"/>
<path fill-rule="evenodd" clip-rule="evenodd" d="M329.901 327.944C311.853 305.39 307.347 188.101 320.877 161.041C334.407 133.981 456.202 133.981 460.72 152.017C465.226 170.065 478.756 174.571 442.672 183.595C406.588 192.619 365.985 183.595 352.455 201.643C338.925 219.679 338.925 350.498 338.925 350.498L329.901 327.944Z" fill="#E4E4E4"/>
<path fill-rule="evenodd" clip-rule="evenodd" d="M202.845 203.909C193.796 179.492 191.53 93.4036 198.314 80.2135C205.111 67.0107 266.241 122.716 268.507 137.706C270.772 152.696 277.556 162.123 259.445 152.08C241.333 142.036 220.957 117.002 214.173 123.736C207.376 130.469 207.376 224.197 207.376 224.197L202.845 203.909Z" fill="#E4E4E4"/>
<path fill-rule="evenodd" clip-rule="evenodd" d="M773.231 349.554C730.577 355.532 595.491 373.681 569.677 385.172C543.876 396.676 515.293 396.097 517.42 388.432C519.547 380.755 726.99 319.171 755.976 331.883C784.974 344.608 773.231 349.554 773.231 349.554Z" fill="#E4E4E4"/>
<path fill-rule="evenodd" clip-rule="evenodd" d="M203.588 50.3843C203.588 50.3843 243.838 72.7496 261.723 95.1024C279.607 117.468 286.316 121.936 306.441 124.163C326.553 126.404 451.759 108.519 465.176 101.811C478.592 95.1024 351.146 119.695 322.085 115.227C293.024 110.759 281.848 95.1024 255.014 79.458C228.181 63.801 203.588 50.3843 203.588 50.3843Z" fill="white"/>
</svg>
